<svg width="210" height="93" viewBox="0 0 210 93" fill="none" xmlns="http://www.w3.org/2000/svg">
<g clip-path="url(#clip0_46_242)">
<path d="M50.1936 53.2979H48.6492V56.1788H50.1936V53.2979Z" fill="#F8F4F1"/>
<path d="M50.1936 36.0117H48.6492V38.8927H50.1936V36.0117Z" fill="#F8F4F1"/>
<path d="M41.6994 45.375H38.6106V46.8155H41.6994V45.375Z" fill="#F8F4F1"/>
<path d="M60.2324 45.375H57.1436V46.8155H60.2324V45.375Z" fill="#F8F4F1"/>
<path d="M57.609 52.7159L55.4238 50.6777L54.3318 51.6963L56.517 53.7344L57.609 52.7159Z" fill="#F8F4F1"/>
<path d="M44.5045 40.4942L42.3193 38.4561L41.2273 39.4746L43.4125 41.5127L44.5045 40.4942Z" fill="#F8F4F1"/>
<path d="M44.5076 51.6953L43.4155 50.6768L41.2303 52.7149L42.3224 53.7334L44.5076 51.6953Z" fill="#F8F4F1"/>
<path d="M57.6113 39.4746L56.5193 38.4561L54.3341 40.4942L55.4261 41.5127L57.6113 39.4746Z" fill="#F8F4F1"/>
<path d="M59.2556 70.5974C56.4602 70.5974 53.3003 69.5999 49.9953 67.634C44.8334 64.564 39.884 59.4698 36.0588 53.2902C32.2337 47.1106 29.9784 40.5662 29.7086 34.8616C29.4309 28.9888 31.2893 24.6717 34.9414 22.7048C38.5936 20.7378 43.5319 21.3957 48.8458 24.5561C54.0077 27.6261 58.9572 32.7203 62.7823 38.8999C66.6074 45.0795 68.8627 51.624 69.1326 57.3286C69.4102 63.2014 67.5515 67.5184 63.8993 69.485C62.519 70.2287 60.9541 70.5974 59.2556 70.5974V70.5974ZM39.5944 23.0332C38.1615 23.0332 36.8554 23.3375 35.7136 23.9522C32.5846 25.6368 31.0001 29.4886 31.251 34.7978C31.5101 40.2752 33.6924 46.587 37.3963 52.57C41.0998 58.553 45.8686 63.4711 50.825 66.4194C55.6293 69.2769 59.9977 69.9222 63.1267 68.238C66.2557 66.5533 67.8403 62.7015 67.5893 57.3923C67.3302 51.9149 65.148 45.6032 61.4441 39.6202C57.7405 33.6372 52.9718 28.7191 48.0153 25.7708C44.9639 23.9558 42.0882 23.0332 39.5944 23.0332V23.0332Z" fill="#FFFAF5"/>
<path d="M39.5874 70.5971C37.8885 70.5971 36.3244 70.2287 34.9437 69.4851C31.2915 67.5185 29.4332 63.201 29.7104 57.3286C29.9803 51.624 32.2356 45.0792 36.0607 38.9C39.8858 32.7207 44.8353 27.6265 49.9972 24.5562C55.3107 21.3962 60.2494 20.7375 63.9016 22.7048C67.5537 24.6714 69.4121 28.9889 69.1348 34.8613C68.8649 40.5659 66.6097 47.1106 62.7846 53.2899C58.9594 59.4691 54.0099 64.5634 48.8481 67.6337C45.543 69.5992 42.3832 70.5971 39.5874 70.5971V70.5971ZM59.2486 23.0329C56.7548 23.0329 53.8794 23.9555 50.8273 25.7705C45.8709 28.7188 41.1021 33.6369 37.3986 39.6199C33.6947 45.6028 31.5124 51.9142 31.2533 57.392C31.0023 62.7012 32.5869 66.553 35.7159 68.2376C38.8441 69.9219 43.2129 69.2766 48.0176 66.419C52.974 63.4708 57.7428 58.5526 61.4463 52.5697C65.1502 46.5867 67.3325 40.2753 67.5916 34.7975C67.8425 29.4883 66.258 25.6365 63.129 23.9519C61.988 23.3375 60.6811 23.0329 59.2486 23.0329V23.0329Z" fill="#FFFAF5"/>
<path d="M49.4215 60.4857C41.7712 60.4857 34.5665 59.0347 29.1352 56.4005C23.5432 53.6884 20.4636 50.0286 20.4636 46.0954C20.4636 42.1622 23.5432 38.5023 29.1352 35.7903C34.5665 33.156 41.7712 31.7051 49.4215 31.7051C57.0718 31.7051 64.2765 33.156 69.7079 35.7903C75.2998 38.5023 78.3794 42.1622 78.3794 46.0954C78.3794 50.0286 75.2998 53.6884 69.7079 56.4005C64.2765 59.0347 57.0718 60.4857 49.4215 60.4857V60.4857ZM49.4215 33.1455C34.3059 33.1455 22.008 38.9546 22.008 46.0954C22.008 53.2361 34.3059 59.0452 49.4215 59.0452C64.5371 59.0452 76.835 53.2361 76.835 46.0954C76.835 38.9546 64.5371 33.1455 49.4215 33.1455V33.1455Z" fill="#FFF5EB"/>
<path d="M49.4215 51.4969C52.62 51.4969 55.213 49.0784 55.213 46.0951C55.213 43.1118 52.62 40.6934 49.4215 40.6934C46.2229 40.6934 43.6299 43.1118 43.6299 46.0951C43.6299 49.0784 46.2229 51.4969 49.4215 51.4969Z" fill="#FF8C1A"/>
<path d="M49.4214 52.2166C45.8021 52.2166 42.8577 49.4704 42.8577 46.0946C42.8577 42.7189 45.8021 39.9727 49.4214 39.9727C53.0408 39.9727 55.9852 42.7189 55.9852 46.0946C55.9852 49.4704 53.0408 52.2166 49.4214 52.2166ZM49.4214 41.4131C46.6538 41.4131 44.4021 43.5133 44.4021 46.0946C44.4021 48.676 46.6538 50.7762 49.4214 50.7762C52.189 50.7762 54.4408 48.676 54.4408 46.0946C54.4408 43.5133 52.189 41.4131 49.4214 41.4131Z" fill="#FFFAF5"/>
<path d="M105.521 19.0987C106.241 19.0987 106.853 19.2007 107.357 19.4047C107.861 19.6087 108.353 19.8967 108.833 20.2687C108.965 20.3767 109.079 20.4307 109.175 20.4307C109.415 20.4307 109.571 20.0707 109.643 19.3507H110.057C110.009 20.1307 109.985 21.5107 109.985 23.4907H109.571C109.439 22.7107 109.319 22.1527 109.211 21.8167C109.103 21.4687 108.923 21.1387 108.671 20.8267C108.311 20.3587 107.849 20.0107 107.285 19.7827C106.733 19.5427 106.133 19.4227 105.485 19.4227C104.705 19.4227 104.021 19.6807 103.433 20.1967C102.857 20.7127 102.407 21.4507 102.083 22.4107C101.759 23.3587 101.597 24.4747 101.597 25.7587C101.597 27.0667 101.771 28.1887 102.119 29.1247C102.467 30.0607 102.947 30.7747 103.559 31.2667C104.183 31.7467 104.885 31.9867 105.665 31.9867C106.265 31.9867 106.847 31.8727 107.411 31.6447C107.975 31.4167 108.419 31.0747 108.743 30.6187C108.983 30.2827 109.157 29.9227 109.265 29.5387C109.373 29.1547 109.475 28.5667 109.571 27.7747H109.985C109.985 29.8387 110.009 31.2787 110.057 32.0947H109.643C109.607 31.7107 109.553 31.4407 109.481 31.2847C109.421 31.1167 109.331 31.0327 109.211 31.0327C109.115 31.0327 108.989 31.0807 108.833 31.1767C108.293 31.5607 107.777 31.8547 107.285 32.0587C106.793 32.2507 106.199 32.3467 105.503 32.3467C104.363 32.3467 103.361 32.0887 102.497 31.5727C101.645 31.0567 100.979 30.3127 100.499 29.3407C100.031 28.3567 99.7968 27.1867 99.7968 25.8307C99.7968 24.5107 100.037 23.3407 100.517 22.3207C101.009 21.3007 101.687 20.5087 102.551 19.9447C103.427 19.3807 104.417 19.0987 105.521 19.0987ZM117.967 22.5727C119.191 22.5727 120.175 22.9807 120.919 23.7967C121.675 24.6007 122.053 25.8247 122.053 27.4687C122.053 29.1127 121.675 30.3367 120.919 31.1407C120.175 31.9447 119.191 32.3467 117.967 32.3467C116.743 32.3467 115.753 31.9447 114.997 31.1407C114.253 30.3367 113.881 29.1127 113.881 27.4687C113.881 25.8247 114.253 24.6007 114.997 23.7967C115.753 22.9807 116.743 22.5727 117.967 22.5727ZM117.967 22.9327C117.247 22.9327 116.677 23.3047 116.257 24.0487C115.837 24.7807 115.627 25.9207 115.627 27.4687C115.627 29.0167 115.837 30.1567 116.257 30.8887C116.677 31.6207 117.247 31.9867 117.967 31.9867C118.687 31.9867 119.257 31.6207 119.677 30.8887C120.097 30.1567 120.307 29.0167 120.307 27.4687C120.307 25.9207 120.097 24.7807 119.677 24.0487C119.257 23.3047 118.687 22.9327 117.967 22.9327ZM139.043 30.4207C139.043 30.9127 139.145 31.2547 139.349 31.4467C139.553 31.6267 139.907 31.7167 140.411 31.7167V32.0947C139.307 32.0467 138.587 32.0227 138.251 32.0227C137.915 32.0227 137.243 32.0467 136.235 32.0947V31.7167C136.679 31.7167 136.985 31.6267 137.153 31.4467C137.333 31.2547 137.423 30.9127 137.423 30.4207V25.2187C137.423 24.7627 137.393 24.3967 137.333 24.1207C137.285 23.8327 137.159 23.5987 136.955 23.4187C136.763 23.2387 136.463 23.1487 136.055 23.1487C135.599 23.1487 135.185 23.2927 134.813 23.5807C134.441 23.8687 134.147 24.2647 133.931 24.7687C133.727 25.2607 133.625 25.8067 133.625 26.4067V30.4207C133.625 30.9127 133.727 31.2547 133.931 31.4467C134.135 31.6267 134.489 31.7167 134.993 31.7167V32.0947C133.889 32.0467 133.169 32.0227 132.833 32.0227C132.497 32.0227 131.825 32.0467 130.817 32.0947V31.7167C131.261 31.7167 131.567 31.6267 131.735 31.4467C131.915 31.2547 132.005 30.9127 132.005 30.4207V25.2187C132.005 24.7627 131.975 24.3967 131.915 24.1207C131.867 23.8327 131.741 23.5987 131.537 23.4187C131.345 23.2387 131.045 23.1487 130.637 23.1487C130.181 23.1487 129.767 23.2927 129.395 23.5807C129.023 23.8687 128.729 24.2647 128.513 24.7687C128.309 25.2727 128.207 25.8247 128.207 26.4247V30.4207C128.207 30.9127 128.291 31.2547 128.459 31.4467C128.639 31.6267 128.951 31.7167 129.395 31.7167V32.0947C128.387 32.0467 127.715 32.0227 127.379 32.0227C127.043 32.0227 126.323 32.0467 125.219 32.0947V31.7167C125.723 31.7167 126.077 31.6267 126.281 31.4467C126.485 31.2547 126.587 30.9127 126.587 30.4207V24.7867C126.587 24.2347 126.485 23.8327 126.281 23.5807C126.077 23.3287 125.723 23.2027 125.219 23.2027V22.8247C125.603 22.8607 125.975 22.8787 126.335 22.8787C127.091 22.8787 127.715 22.7947 128.207 22.6267V24.7507C128.495 24.0067 128.903 23.4607 129.431 23.1127C129.959 22.7527 130.535 22.5727 131.159 22.5727C131.975 22.5727 132.599 22.8007 133.031 23.2567C133.331 23.5687 133.517 24.0487 133.589 24.6967C133.889 23.9407 134.303 23.4007 134.831 23.0767C135.359 22.7407 135.941 22.5727 136.577 22.5727C137.393 22.5727 138.017 22.8007 138.449 23.2567C138.665 23.4967 138.815 23.8027 138.899 24.1747C138.995 24.5467 139.043 25.0267 139.043 25.6147V30.4207ZM156.821 30.4207C156.821 30.9127 156.923 31.2547 157.127 31.4467C157.331 31.6267 157.685 31.7167 158.189 31.7167V32.0947C157.085 32.0467 156.365 32.0227 156.029 32.0227C155.693 32.0227 155.021 32.0467 154.013 32.0947V31.7167C154.457 31.7167 154.763 31.6267 154.931 31.4467C155.111 31.2547 155.201 30.9127 155.201 30.4207V25.2187C155.201 24.7627 155.171 24.3967 155.111 24.1207C155.063 23.8327 154.937 23.5987 154.733 23.4187C154.541 23.2387 154.241 23.1487 153.833 23.1487C153.377 23.1487 152.963 23.2927 152.591 23.5807C152.219 23.8687 151.925 24.2647 151.709 24.7687C151.505 25.2607 151.403 25.8067 151.403 26.4067V30.4207C151.403 30.9127 151.505 31.2547 151.709 31.4467C151.913 31.6267 152.267 31.7167 152.771 31.7167V32.0947C151.667 32.0467 150.947 32.0227 150.611 32.0227C150.275 32.0227 149.603 32.0467 148.595 32.0947V31.7167C149.039 31.7167 149.345 31.6267 149.513 31.4467C149.693 31.2547 149.783 30.9127 149.783 30.4207V25.2187C149.783 24.7627 149.753 24.3967 149.693 24.1207C149.645 23.8327 149.519 23.5987 149.315 23.4187C149.123 23.2387 148.823 23.1487 148.415 23.1487C147.959 23.1487 147.545 23.2927 147.173 23.5807C146.801 23.8687 146.507 24.2647 146.291 24.7687C146.087 25.2727 145.985 25.8247 145.985 26.4247V30.4207C145.985 30.9127 146.069 31.2547 146.237 31.4467C146.417 31.6267 146.729 31.7167 147.173 31.7167V32.0947C146.165 32.0467 145.493 32.0227 145.157 32.0227C144.821 32.0227 144.101 32.0467 142.997 32.0947V31.7167C143.501 31.7167 143.855 31.6267 144.059 31.4467C144.263 31.2547 144.365 30.9127 144.365 30.4207V24.7867C144.365 24.2347 144.263 23.8327 144.059 23.5807C143.855 23.3287 143.501 23.2027 142.997 23.2027V22.8247C143.381 22.8607 143.753 22.8787 144.113 22.8787C144.869 22.8787 145.493 22.7947 145.985 22.6267V24.7507C146.273 24.0067 146.681 23.4607 147.209 23.1127C147.737 22.7527 148.313 22.5727 148.937 22.5727C149.753 22.5727 150.377 22.8007 150.809 23.2567C151.109 23.5687 151.295 24.0487 151.367 24.6967C151.667 23.9407 152.081 23.4007 152.609 23.0767C153.137 22.7407 153.719 22.5727 154.355 22.5727C155.171 22.5727 155.795 22.8007 156.227 23.2567C156.443 23.4967 156.593 23.8027 156.677 24.1747C156.773 24.5467 156.821 25.0267 156.821 25.6147V30.4207ZM168.948 30.1507C168.948 30.7027 169.05 31.1047 169.254 31.3567C169.458 31.6087 169.812 31.7347 170.316 31.7347V32.1127C169.944 32.0767 169.572 32.0587 169.2 32.0587C168.444 32.0587 167.82 32.1427 167.328 32.3107V30.1867C167.04 30.9307 166.632 31.4767 166.104 31.8247C165.576 32.1727 165 32.3467 164.376 32.3467C163.56 32.3467 162.936 32.1187 162.504 31.6627C162.288 31.4227 162.132 31.1167 162.036 30.7447C161.952 30.3727 161.91 29.8927 161.91 29.3047V24.7867C161.91 24.2347 161.808 23.8327 161.604 23.5807C161.4 23.3287 161.046 23.2027 160.542 23.2027V22.8247C160.914 22.8607 161.286 22.8787 161.658 22.8787C162.414 22.8787 163.038 22.7947 163.53 22.6267V29.7007C163.53 30.1567 163.554 30.5287 163.602 30.8167C163.662 31.0927 163.788 31.3207 163.98 31.5007C164.184 31.6807 164.49 31.7707 164.898 31.7707C165.354 31.7707 165.768 31.6267 166.14 31.3387C166.512 31.0507 166.8 30.6607 167.004 30.1687C167.22 29.6647 167.328 29.1127 167.328 28.5127V24.7867C167.328 24.2347 167.226 23.8327 167.022 23.5807C166.818 23.3287 166.464 23.2027 165.96 23.2027V22.8247C166.332 22.8607 166.704 22.8787 167.076 22.8787C167.832 22.8787 168.456 22.7947 168.948 22.6267V30.1507ZM179.083 22.5727C179.923 22.5727 180.559 22.8007 180.991 23.2567C181.219 23.4967 181.381 23.7967 181.477 24.1567C181.573 24.5167 181.621 25.0027 181.621 25.6147V30.4207C181.621 30.9127 181.723 31.2547 181.927 31.4467C182.131 31.6267 182.485 31.7167 182.989 31.7167V32.0947C181.885 32.0467 181.165 32.0227 180.829 32.0227C180.493 32.0227 179.821 32.0467 178.813 32.0947V31.7167C179.257 31.7167 179.563 31.6267 179.731 31.4467C179.911 31.2547 180.001 30.9127 180.001 30.4207V25.2187C180.001 24.5467 179.905 24.0367 179.713 23.6887C179.521 23.3287 179.131 23.1487 178.543 23.1487C178.051 23.1487 177.613 23.2927 177.229 23.5807C176.845 23.8687 176.545 24.2647 176.329 24.7687C176.125 25.2607 176.023 25.8127 176.023 26.4247V30.4207C176.023 30.9127 176.107 31.2547 176.275 31.4467C176.455 31.6267 176.767 31.7167 177.211 31.7167V32.0947C176.203 32.0467 175.531 32.0227 175.195 32.0227C174.859 32.0227 174.139 32.0467 173.035 32.0947V31.7167C173.539 31.7167 173.893 31.6267 174.097 31.4467C174.301 31.2547 174.403 30.9127 174.403 30.4207V24.7867C174.403 24.2347 174.301 23.8327 174.097 23.5807C173.893 23.3287 173.539 23.2027 173.035 23.2027V22.8247C173.419 22.8607 173.791 22.8787 174.151 22.8787C174.907 22.8787 175.531 22.7947 176.023 22.6267V24.7507C176.323 23.9827 176.737 23.4307 177.265 23.0947C177.805 22.7467 178.411 22.5727 179.083 22.5727ZM187.627 18.3247C187.939 18.3247 188.209 18.4387 188.437 18.6667C188.665 18.8947 188.779 19.1647 188.779 19.4767C188.779 19.7887 188.665 20.0587 188.437 20.2867C188.209 20.5147 187.939 20.6287 187.627 20.6287C187.315 20.6287 187.045 20.5147 186.817 20.2867C186.589 20.0587 186.475 19.7887 186.475 19.4767C186.475 19.1647 186.589 18.8947 186.817 18.6667C187.045 18.4387 187.315 18.3247 187.627 18.3247ZM188.563 30.4207C188.563 30.9127 188.665 31.2547 188.869 31.4467C189.073 31.6267 189.427 31.7167 189.931 31.7167V32.0947C188.827 32.0467 188.101 32.0227 187.753 32.0227C187.405 32.0227 186.679 32.0467 185.575 32.0947V31.7167C186.079 31.7167 186.433 31.6267 186.637 31.4467C186.841 31.2547 186.943 30.9127 186.943 30.4207V24.7867C186.943 24.2347 186.841 23.8327 186.637 23.5807C186.433 23.3287 186.079 23.2027 185.575 23.2027V22.8247C185.959 22.8607 186.331 22.8787 186.691 22.8787C187.447 22.8787 188.071 22.7947 188.563 22.6267V30.4207ZM195.546 22.8427H198.21V23.2027H195.546V30.1687C195.546 30.7087 195.642 31.0987 195.834 31.3387C196.038 31.5787 196.326 31.6987 196.698 31.6987C197.07 31.6987 197.388 31.5487 197.652 31.2487C197.916 30.9487 198.138 30.4567 198.318 29.7727L198.678 29.8627C198.378 31.5187 197.598 32.3467 196.338 32.3467C195.93 32.3467 195.594 32.2987 195.33 32.2027C195.066 32.1067 194.832 31.9567 194.628 31.7527C194.364 31.4887 194.178 31.1647 194.07 30.7807C193.974 30.3967 193.926 29.8807 193.926 29.2327V23.2027H192.198V22.8427H193.926V20.0887C194.598 20.0647 195.138 19.9807 195.546 19.8367V22.8427ZM207.814 22.8787C208.342 22.8787 208.798 22.8607 209.182 22.8247V23.1847C208.942 23.2087 208.726 23.3167 208.534 23.5087C208.354 23.7007 208.18 24.0127 208.012 24.4447L205.06 32.1847L204.448 33.7507C204.22 34.3387 203.962 34.7587 203.674 35.0107C203.494 35.1787 203.278 35.2987 203.026 35.3707C202.774 35.4427 202.522 35.4787 202.27 35.4787C201.91 35.4787 201.616 35.3827 201.388 35.1907C201.16 34.9987 201.046 34.7347 201.046 34.3987C201.046 34.1107 201.13 33.8767 201.298 33.6967C201.466 33.5287 201.7 33.4447 202 33.4447C202.264 33.4447 202.48 33.5167 202.648 33.6607C202.828 33.8167 202.918 34.0267 202.918 34.2907C202.918 34.6507 202.756 34.9207 202.432 35.1007C202.456 35.1127 202.492 35.1187 202.54 35.1187C203.2 35.1187 203.71 34.6507 204.07 33.7147L204.7 32.0767L201.442 24.2107C201.238 23.8027 201.034 23.5327 200.83 23.4007C200.626 23.2687 200.422 23.2027 200.218 23.2027V22.8247C200.734 22.8967 201.322 22.9327 201.982 22.9327C202.582 22.9327 203.362 22.8967 204.322 22.8247V23.2027C203.89 23.2027 203.572 23.2387 203.368 23.3107C203.176 23.3827 203.08 23.5567 203.08 23.8327C203.08 24.0847 203.152 24.3787 203.296 24.7147L205.456 30.0787L207.454 24.8767C207.586 24.5167 207.652 24.2407 207.652 24.0487C207.652 23.7727 207.544 23.5687 207.328 23.4367C207.112 23.3047 206.77 23.2207 206.302 23.1847V22.8247C206.938 22.8607 207.442 22.8787 207.814 22.8787ZM103.451 38.1527C103.979 38.1527 104.393 38.2127 104.693 38.3327C105.005 38.4407 105.323 38.6027 105.647 38.8187C105.911 38.9867 106.115 39.0707 106.259 39.0707C106.367 39.0707 106.451 39.0107 106.511 38.8907C106.571 38.7587 106.619 38.5547 106.655 38.2787H107.069C107.009 38.9747 106.979 40.1987 106.979 41.9507H106.565C106.493 40.9787 106.211 40.1627 105.719 39.5027C105.239 38.8307 104.537 38.4947 103.613 38.4947C102.965 38.4947 102.437 38.6927 102.029 39.0887C101.621 39.4727 101.417 39.9707 101.417 40.5827C101.417 41.0387 101.519 41.4347 101.723 41.7707C101.939 42.1067 102.209 42.3947 102.533 42.6347C102.857 42.8747 103.319 43.1807 103.919 43.5527L104.441 43.8767C105.197 44.3447 105.791 44.7587 106.223 45.1187C106.667 45.4667 107.021 45.8687 107.285 46.3247C107.549 46.7807 107.681 47.3147 107.681 47.9267C107.681 49.0187 107.321 49.8647 106.601 50.4647C105.881 51.0527 104.969 51.3467 103.865 51.3467C103.289 51.3467 102.815 51.2867 102.443 51.1667C102.083 51.0467 101.735 50.8847 101.399 50.6807C101.135 50.5127 100.931 50.4287 100.787 50.4287C100.679 50.4287 100.595 50.4947 100.535 50.6267C100.475 50.7467 100.427 50.9447 100.391 51.2207H99.9768C100.025 50.5607 100.049 49.1207 100.049 46.9007H100.463C100.547 48.1127 100.847 49.0967 101.363 49.8527C101.879 50.6087 102.671 50.9867 103.739 50.9867C104.387 50.9867 104.939 50.7887 105.395 50.3927C105.851 49.9847 106.079 49.3847 106.079 48.5927C106.079 47.9207 105.851 47.3507 105.395 46.8827C104.951 46.4147 104.243 45.8867 103.271 45.2987C102.563 44.8667 101.987 44.4827 101.543 44.1467C101.111 43.8107 100.757 43.4087 100.481 42.9407C100.205 42.4607 100.067 41.9027 100.067 41.2667C100.067 40.2587 100.391 39.4907 101.039 38.9627C101.687 38.4227 102.491 38.1527 103.451 38.1527ZM115.385 41.5727C116.189 41.5727 116.885 41.7647 117.473 42.1487C118.037 42.5207 118.319 42.9827 118.319 43.5347C118.319 43.8467 118.229 44.0927 118.049 44.2727C117.869 44.4527 117.641 44.5427 117.365 44.5427C117.089 44.5427 116.855 44.4647 116.663 44.3087C116.471 44.1407 116.375 43.9187 116.375 43.6427C116.375 43.3907 116.447 43.1807 116.591 43.0127C116.735 42.8327 116.915 42.7127 117.131 42.6527C117.011 42.4367 116.795 42.2567 116.483 42.1127C116.183 41.9687 115.859 41.8967 115.511 41.8967C115.067 41.8967 114.653 42.0407 114.269 42.3287C113.885 42.6047 113.567 43.0727 113.315 43.7327C113.063 44.3807 112.937 45.2387 112.937 46.3067C112.937 47.7947 113.177 48.8807 113.657 49.5647C114.137 50.2367 114.761 50.5727 115.529 50.5727C116.045 50.5727 116.531 50.4227 116.987 50.1227C117.455 49.8227 117.839 49.3547 118.139 48.7187L118.481 48.8447C118.277 49.5287 117.893 50.1167 117.329 50.6087C116.777 51.1007 116.057 51.3467 115.169 51.3467C114.425 51.3467 113.747 51.1547 113.135 50.7707C112.535 50.3867 112.061 49.8347 111.713 49.1147C111.365 48.3827 111.191 47.5367 111.191 46.5767C111.191 45.6047 111.365 44.7407 111.713 43.9847C112.073 43.2287 112.571 42.6407 113.207 42.2207C113.843 41.7887 114.569 41.5727 115.385 41.5727ZM123.491 37.3247C123.803 37.3247 124.073 37.4387 124.301 37.6667C124.529 37.8947 124.643 38.1647 124.643 38.4767C124.643 38.7887 124.529 39.0587 124.301 39.2867C124.073 39.5147 123.803 39.6287 123.491 39.6287C123.179 39.6287 122.909 39.5147 122.681 39.2867C122.453 39.0587 122.339 38.7887 122.339 38.4767C122.339 38.1647 122.453 37.8947 122.681 37.6667C122.909 37.4387 123.179 37.3247 123.491 37.3247ZM124.427 49.4207C124.427 49.9127 124.529 50.2547 124.733 50.4467C124.937 50.6267 125.291 50.7167 125.795 50.7167V51.0947C124.691 51.0467 123.965 51.0227 123.617 51.0227C123.269 51.0227 122.543 51.0467 121.439 51.0947V50.7167C121.943 50.7167 122.297 50.6267 122.501 50.4467C122.705 50.2547 122.807 49.9127 122.807 49.4207V43.7867C122.807 43.2347 122.705 42.8327 122.501 42.5807C122.297 42.3287 121.943 42.2027 121.439 42.2027V41.8247C121.823 41.8607 122.195 41.8787 122.555 41.8787C123.311 41.8787 123.935 41.7947 124.427 41.6267V49.4207ZM136.325 48.9347C136.109 49.5947 135.701 50.1647 135.101 50.6447C134.513 51.1127 133.799 51.3467 132.959 51.3467C132.107 51.3467 131.369 51.1547 130.745 50.7707C130.121 50.3747 129.641 49.8287 129.305 49.1327C128.981 48.4247 128.819 47.6087 128.819 46.6847C128.819 45.6407 128.987 44.7347 129.323 43.9667C129.659 43.1987 130.133 42.6107 130.745 42.2027C131.357 41.7827 132.071 41.5727 132.887 41.5727C133.967 41.5727 134.795 41.9027 135.371 42.5627C135.959 43.2107 136.253 44.2007 136.253 45.5327H130.619C130.583 45.8687 130.565 46.2527 130.565 46.6847C130.565 47.4767 130.691 48.1667 130.943 48.7547C131.207 49.3427 131.549 49.7987 131.969 50.1227C132.401 50.4347 132.851 50.5907 133.319 50.5907C133.895 50.5907 134.405 50.4527 134.849 50.1767C135.293 49.9007 135.665 49.4387 135.965 48.7907L136.325 48.9347ZM132.815 41.9147C132.251 41.9147 131.765 42.1907 131.357 42.7427C130.949 43.2947 130.697 44.1107 130.601 45.1907H134.525C134.549 44.2547 134.411 43.4747 134.111 42.8507C133.823 42.2267 133.391 41.9147 132.815 41.9147ZM145.466 41.5727C146.306 41.5727 146.942 41.8007 147.374 42.2567C147.602 42.4967 147.764 42.7967 147.86 43.1567C147.956 43.5167 148.004 44.0027 148.004 44.6147V49.4207C148.004 49.9127 148.106 50.2547 148.31 50.4467C148.514 50.6267 148.868 50.7167 149.372 50.7167V51.0947C148.268 51.0467 147.548 51.0227 147.212 51.0227C146.876 51.0227 146.204 51.0467 145.196 51.0947V50.7167C145.64 50.7167 145.946 50.6267 146.114 50.4467C146.294 50.2547 146.384 49.9127 146.384 49.4207V44.2187C146.384 43.5467 146.288 43.0367 146.096 42.6887C145.904 42.3287 145.514 42.1487 144.926 42.1487C144.434 42.1487 143.996 42.2927 143.612 42.5807C143.228 42.8687 142.928 43.2647 142.712 43.7687C142.508 44.2607 142.406 44.8127 142.406 45.4247V49.4207C142.406 49.9127 142.49 50.2547 142.658 50.4467C142.838 50.6267 143.15 50.7167 143.594 50.7167V51.0947C142.586 51.0467 141.914 51.0227 141.578 51.0227C141.242 51.0227 140.522 51.0467 139.418 51.0947V50.7167C139.922 50.7167 140.276 50.6267 140.48 50.4467C140.684 50.2547 140.786 49.9127 140.786 49.4207V43.7867C140.786 43.2347 140.684 42.8327 140.48 42.5807C140.276 42.3287 139.922 42.2027 139.418 42.2027V41.8247C139.802 41.8607 140.174 41.8787 140.534 41.8787C141.29 41.8787 141.914 41.7947 142.406 41.6267V43.7507C142.706 42.9827 143.12 42.4307 143.648 42.0947C144.188 41.7467 144.794 41.5727 145.466 41.5727ZM156.459 41.5727C157.263 41.5727 157.959 41.7647 158.547 42.1487C159.111 42.5207 159.393 42.9827 159.393 43.5347C159.393 43.8467 159.303 44.0927 159.123 44.2727C158.943 44.4527 158.715 44.5427 158.439 44.5427C158.163 44.5427 157.929 44.4647 157.737 44.3087C157.545 44.1407 157.449 43.9187 157.449 43.6427C157.449 43.3907 157.521 43.1807 157.665 43.0127C157.809 42.8327 157.989 42.7127 158.205 42.6527C158.085 42.4367 157.869 42.2567 157.557 42.1127C157.257 41.9687 156.933 41.8967 156.585 41.8967C156.141 41.8967 155.727 42.0407 155.343 42.3287C154.959 42.6047 154.641 43.0727 154.389 43.7327C154.137 44.3807 154.011 45.2387 154.011 46.3067C154.011 47.7947 154.251 48.8807 154.731 49.5647C155.211 50.2367 155.835 50.5727 156.603 50.5727C157.119 50.5727 157.605 50.4227 158.061 50.1227C158.529 49.8227 158.913 49.3547 159.213 48.7187L159.555 48.8447C159.351 49.5287 158.967 50.1167 158.403 50.6087C157.851 51.1007 157.131 51.3467 156.243 51.3467C155.499 51.3467 154.821 51.1547 154.209 50.7707C153.609 50.3867 153.135 49.8347 152.787 49.1147C152.439 48.3827 152.265 47.5367 152.265 46.5767C152.265 45.6047 152.439 44.7407 152.787 43.9847C153.147 43.2287 153.645 42.6407 154.281 42.2207C154.917 41.7887 155.643 41.5727 156.459 41.5727ZM170.324 48.9347C170.108 49.5947 169.7 50.1647 169.1 50.6447C168.512 51.1127 167.798 51.3467 166.958 51.3467C166.106 51.3467 165.368 51.1547 164.744 50.7707C164.12 50.3747 163.64 49.8287 163.304 49.1327C162.98 48.4247 162.818 47.6087 162.818 46.6847C162.818 45.6407 162.986 44.7347 163.322 43.9667C163.658 43.1987 164.132 42.6107 164.744 42.2027C165.356 41.7827 166.07 41.5727 166.886 41.5727C167.966 41.5727 168.794 41.9027 169.37 42.5627C169.958 43.2107 170.252 44.2007 170.252 45.5327H164.618C164.582 45.8687 164.564 46.2527 164.564 46.6847C164.564 47.4767 164.69 48.1667 164.942 48.7547C165.206 49.3427 165.548 49.7987 165.968 50.1227C166.4 50.4347 166.85 50.5907 167.318 50.5907C167.894 50.5907 168.404 50.4527 168.848 50.1767C169.292 49.9007 169.664 49.4387 169.964 48.7907L170.324 48.9347ZM166.814 41.9147C166.25 41.9147 165.764 42.1907 165.356 42.7427C164.948 43.2947 164.696 44.1107 164.6 45.1907H168.524C168.548 44.2547 168.41 43.4747 168.11 42.8507C167.822 42.2267 167.39 41.9147 166.814 41.9147ZM113.765 57.7107C113.333 57.7347 113.015 57.7827 112.811 57.8547C112.619 57.9267 112.487 58.0647 112.415 58.2687C112.343 58.4727 112.307 58.8027 112.307 59.2587V68.1867C112.307 68.6427 112.343 68.9727 112.415 69.1767C112.487 69.3807 112.619 69.5187 112.811 69.5907C113.015 69.6627 113.333 69.7107 113.765 69.7347V70.0947C113.213 70.0587 112.451 70.0407 111.479 70.0407C110.447 70.0407 109.679 70.0587 109.175 70.0947V69.7347C109.607 69.7107 109.919 69.6627 110.111 69.5907C110.315 69.5187 110.453 69.3807 110.525 69.1767C110.597 68.9727 110.633 68.6427 110.633 68.1867V58.5387L106.295 70.1847H106.007L101.471 58.5027V68.0067C101.471 68.4747 101.507 68.8227 101.579 69.0507C101.663 69.2787 101.819 69.4467 102.047 69.5547C102.275 69.6507 102.629 69.7107 103.109 69.7347V70.0947C102.677 70.0587 102.065 70.0407 101.273 70.0407C100.553 70.0407 99.9948 70.0587 99.5988 70.0947V69.7347C100.019 69.7107 100.331 69.6507 100.535 69.5547C100.739 69.4467 100.877 69.2787 100.949 69.0507C101.021 68.8107 101.057 68.4627 101.057 68.0067V59.2587C101.057 58.8027 101.021 58.4727 100.949 58.2687C100.877 58.0647 100.739 57.9267 100.535 57.8547C100.343 57.7827 100.031 57.7347 99.5988 57.7107V57.3507C99.9948 57.3867 100.553 57.4047 101.273 57.4047C101.897 57.4047 102.407 57.3867 102.803 57.3507L106.763 67.7727L110.633 57.4047H111.479C112.451 57.4047 113.213 57.3867 113.765 57.3507V57.7107ZM124.823 68.1507C124.823 68.7027 124.925 69.1047 125.129 69.3567C125.333 69.6087 125.687 69.7347 126.191 69.7347V70.1127C125.819 70.0767 125.447 70.0587 125.075 70.0587C124.319 70.0587 123.695 70.1427 123.203 70.3107V68.1867C122.915 68.9307 122.507 69.4767 121.979 69.8247C121.451 70.1727 120.875 70.3467 120.251 70.3467C119.435 70.3467 118.811 70.1187 118.379 69.6627C118.163 69.4227 118.007 69.1167 117.911 68.7447C117.827 68.3727 117.785 67.8927 117.785 67.3047V62.7867C117.785 62.2347 117.683 61.8327 117.479 61.5807C117.275 61.3287 116.921 61.2027 116.417 61.2027V60.8247C116.789 60.8607 117.161 60.8787 117.533 60.8787C118.289 60.8787 118.913 60.7947 119.405 60.6267V67.7007C119.405 68.1567 119.429 68.5287 119.477 68.8167C119.537 69.0927 119.663 69.3207 119.855 69.5007C120.059 69.6807 120.365 69.7707 120.773 69.7707C121.229 69.7707 121.643 69.6267 122.015 69.3387C122.387 69.0507 122.675 68.6607 122.879 68.1687C123.095 67.6647 123.203 67.1127 123.203 66.5127V62.7867C123.203 62.2347 123.101 61.8327 122.897 61.5807C122.693 61.3287 122.339 61.2027 121.835 61.2027V60.8247C122.207 60.8607 122.579 60.8787 122.951 60.8787C123.707 60.8787 124.331 60.7947 124.823 60.6267V68.1507ZM132.132 60.5727C132.564 60.5727 132.948 60.6387 133.284 60.7707C133.62 60.9027 133.89 61.0587 134.094 61.2387C134.226 61.3347 134.334 61.3827 134.418 61.3827C134.634 61.3827 134.766 61.1187 134.814 60.5907H135.228C135.18 61.1787 135.156 62.1987 135.156 63.6507H134.742C134.61 62.8587 134.352 62.2047 133.968 61.6887C133.596 61.1727 133.038 60.9147 132.294 60.9147C131.862 60.9147 131.508 61.0407 131.232 61.2927C130.956 61.5327 130.818 61.8687 130.818 62.3007C130.818 62.7207 130.962 63.0747 131.25 63.3627C131.538 63.6387 132 63.9747 132.636 64.3707C132.744 64.4307 132.906 64.5327 133.122 64.6767C133.674 65.0367 134.118 65.3547 134.454 65.6307C134.79 65.9067 135.06 66.2247 135.264 66.5847C135.48 66.9447 135.588 67.3587 135.588 67.8267C135.588 68.6187 135.288 69.2367 134.688 69.6807C134.1 70.1247 133.374 70.3467 132.51 70.3467C131.97 70.3467 131.496 70.2627 131.088 70.0947C130.824 69.9627 130.578 69.8007 130.35 69.6087C130.302 69.5607 130.248 69.5367 130.188 69.5367C130.104 69.5367 130.026 69.5967 129.954 69.7167C129.894 69.8367 129.846 70.0047 129.81 70.2207H129.396C129.444 69.5367 129.468 68.3367 129.468 66.6207H129.882C130.014 67.7487 130.254 68.5947 130.602 69.1587C130.95 69.7107 131.544 69.9867 132.384 69.9867C132.804 69.9867 133.176 69.8487 133.5 69.5727C133.824 69.2967 133.986 68.8647 133.986 68.2767C133.986 67.8087 133.824 67.4127 133.5 67.0887C133.188 66.7647 132.672 66.3747 131.952 65.9187C131.364 65.5467 130.908 65.2407 130.584 65.0007C130.272 64.7607 130.008 64.4667 129.792 64.1187C129.576 63.7707 129.468 63.3627 129.468 62.8947C129.468 62.1387 129.72 61.5627 130.224 61.1667C130.728 60.7707 131.364 60.5727 132.132 60.5727ZM146.573 67.9347C146.357 68.5947 145.949 69.1647 145.349 69.6447C144.761 70.1127 144.047 70.3467 143.207 70.3467C142.355 70.3467 141.617 70.1547 140.993 69.7707C140.369 69.3747 139.889 68.8287 139.553 68.1327C139.229 67.4247 139.067 66.6087 139.067 65.6847C139.067 64.6407 139.235 63.7347 139.571 62.9667C139.907 62.1987 140.381 61.6107 140.993 61.2027C141.605 60.7827 142.319 60.5727 143.135 60.5727C144.215 60.5727 145.043 60.9027 145.619 61.5627C146.207 62.2107 146.501 63.2007 146.501 64.5327H140.867C140.831 64.8687 140.813 65.2527 140.813 65.6847C140.813 66.4767 140.939 67.1667 141.191 67.7547C141.455 68.3427 141.797 68.7987 142.217 69.1227C142.649 69.4347 143.099 69.5907 143.567 69.5907C144.143 69.5907 144.653 69.4527 145.097 69.1767C145.541 68.9007 145.913 68.4387 146.213 67.7907L146.573 67.9347ZM143.063 60.9147C142.499 60.9147 142.013 61.1907 141.605 61.7427C141.197 62.2947 140.945 63.1107 140.849 64.1907H144.773C144.797 63.2547 144.659 62.4747 144.359 61.8507C144.071 61.2267 143.639 60.9147 143.063 60.9147ZM157.838 68.1507C157.838 68.7027 157.94 69.1047 158.144 69.3567C158.348 69.6087 158.702 69.7347 159.206 69.7347V70.1127C158.834 70.0767 158.462 70.0587 158.09 70.0587C157.334 70.0587 156.71 70.1427 156.218 70.3107V68.1867C155.93 68.9307 155.522 69.4767 154.994 69.8247C154.466 70.1727 153.89 70.3467 153.266 70.3467C152.45 70.3467 151.826 70.1187 151.394 69.6627C151.178 69.4227 151.022 69.1167 150.926 68.7447C150.842 68.3727 150.8 67.8927 150.8 67.3047V62.7867C150.8 62.2347 150.698 61.8327 150.494 61.5807C150.29 61.3287 149.936 61.2027 149.432 61.2027V60.8247C149.804 60.8607 150.176 60.8787 150.548 60.8787C151.304 60.8787 151.928 60.7947 152.42 60.6267V67.7007C152.42 68.1567 152.444 68.5287 152.492 68.8167C152.552 69.0927 152.678 69.3207 152.87 69.5007C153.074 69.6807 153.38 69.7707 153.788 69.7707C154.244 69.7707 154.658 69.6267 155.03 69.3387C155.402 69.0507 155.69 68.6607 155.894 68.1687C156.11 67.6647 156.218 67.1127 156.218 66.5127V62.7867C156.218 62.2347 156.116 61.8327 155.912 61.5807C155.708 61.3287 155.354 61.2027 154.85 61.2027V60.8247C155.222 60.8607 155.594 60.8787 155.966 60.8787C156.722 60.8787 157.346 60.7947 157.838 60.6267V68.1507ZM175.749 68.4207C175.749 68.9127 175.851 69.2547 176.055 69.4467C176.259 69.6267 176.613 69.7167 177.117 69.7167V70.0947C176.013 70.0467 175.293 70.0227 174.957 70.0227C174.621 70.0227 173.949 70.0467 172.941 70.0947V69.7167C173.385 69.7167 173.691 69.6267 173.859 69.4467C174.039 69.2547 174.129 68.9127 174.129 68.4207V63.2187C174.129 62.7627 174.099 62.3967 174.039 62.1207C173.991 61.8327 173.865 61.5987 173.661 61.4187C173.469 61.2387 173.169 61.1487 172.761 61.1487C172.305 61.1487 171.891 61.2927 171.519 61.5807C171.147 61.8687 170.853 62.2647 170.637 62.7687C170.433 63.2607 170.331 63.8067 170.331 64.4067V68.4207C170.331 68.9127 170.433 69.2547 170.637 69.4467C170.841 69.6267 171.195 69.7167 171.699 69.7167V70.0947C170.595 70.0467 169.875 70.0227 169.539 70.0227C169.203 70.0227 168.531 70.0467 167.523 70.0947V69.7167C167.967 69.7167 168.273 69.6267 168.441 69.4467C168.621 69.2547 168.711 68.9127 168.711 68.4207V63.2187C168.711 62.7627 168.681 62.3967 168.621 62.1207C168.573 61.8327 168.447 61.5987 168.243 61.4187C168.051 61.2387 167.751 61.1487 167.343 61.1487C166.887 61.1487 166.473 61.2927 166.101 61.5807C165.729 61.8687 165.435 62.2647 165.219 62.7687C165.015 63.2727 164.913 63.8247 164.913 64.4247V68.4207C164.913 68.9127 164.997 69.2547 165.165 69.4467C165.345 69.6267 165.657 69.7167 166.101 69.7167V70.0947C165.093 70.0467 164.421 70.0227 164.085 70.0227C163.749 70.0227 163.029 70.0467 161.925 70.0947V69.7167C162.429 69.7167 162.783 69.6267 162.987 69.4467C163.191 69.2547 163.293 68.9127 163.293 68.4207V62.7867C163.293 62.2347 163.191 61.8327 162.987 61.5807C162.783 61.3287 162.429 61.2027 161.925 61.2027V60.8247C162.309 60.8607 162.681 60.8787 163.041 60.8787C163.797 60.8787 164.421 60.7947 164.913 60.6267V62.7507C165.201 62.0067 165.609 61.4607 166.137 61.1127C166.665 60.7527 167.241 60.5727 167.865 60.5727C168.681 60.5727 169.305 60.8007 169.737 61.2567C170.037 61.5687 170.223 62.0487 170.295 62.6967C170.595 61.9407 171.009 61.4007 171.537 61.0767C172.065 60.7407 172.647 60.5727 173.283 60.5727C174.099 60.5727 174.723 60.8007 175.155 61.2567C175.371 61.4967 175.521 61.8027 175.605 62.1747C175.701 62.5467 175.749 63.0267 175.749 63.6147V68.4207Z" fill="#F36B20"/>
</g>
<defs>
<clipPath id="clip0_46_242">
<rect width="209.843" height="92.19" fill="white"/>
</clipPath>
</defs>
</svg>
