<svg width="104" height="104" viewBox="0 0 104 104" fill="none" xmlns="http://www.w3.org/2000/svg">
<path d="M52.8125 60.125H51.1875V63.375H52.8125V60.125Z" fill="#F8F4F1"/>
<path d="M52.8125 40.625H51.1875V43.875H52.8125V40.625Z" fill="#F8F4F1"/>
<path d="M43.875 51.1875H40.625V52.8125H43.875V51.1875Z" fill="#F8F4F1"/>
<path d="M63.375 51.1875H60.125V52.8125H63.375V51.1875Z" fill="#F8F4F1"/>
<path d="M60.6147 59.4692L58.3154 57.1699L57.1664 58.319L59.4656 60.6182L60.6147 59.4692Z" fill="#F8F4F1"/>
<path d="M46.8266 45.6811L44.5273 43.3818L43.3783 44.5309L45.6775 46.8301L46.8266 45.6811Z" fill="#F8F4F1"/>
<path d="M46.83 58.3189L45.6809 57.1699L43.3817 59.4691L44.5307 60.6182L46.83 58.3189Z" fill="#F8F4F1"/>
<path d="M60.6173 44.5309L59.4683 43.3818L57.169 45.6811L58.3181 46.8301L60.6173 44.5309Z" fill="#F8F4F1"/>
<path d="M62.3472 79.6408C59.406 79.6408 56.0812 78.5155 52.6037 76.2978C47.1726 72.8345 41.9649 67.0877 37.9401 60.1164C33.9154 53.1452 31.5425 45.7624 31.2586 39.327C30.9665 32.7019 32.9217 27.8318 36.7645 25.6128C40.6072 23.3939 45.8031 24.1361 51.3943 27.7014C56.8255 31.1646 62.0332 36.9114 66.0579 43.8827C70.0826 50.8539 72.4555 58.2367 72.7395 64.6721C73.0316 71.2973 71.0759 76.1674 67.2332 78.3859C65.7809 79.2248 64.1343 79.6408 62.3472 79.6408ZM41.6602 25.9833C40.1526 25.9833 38.7782 26.3266 37.577 27.0201C34.2847 28.9205 32.6175 33.2658 32.8815 39.2551C33.1541 45.4342 35.4502 52.5545 39.3474 59.3039C43.2441 66.0534 48.2617 71.6015 53.4768 74.9275C58.5317 78.1511 63.1281 78.8791 66.4203 76.9791C69.7126 75.0786 71.3798 70.7334 71.1157 64.744C70.8431 58.565 68.547 51.4446 64.6499 44.6952C60.7531 37.9458 55.7355 32.3976 50.5205 29.0716C47.3099 27.0241 44.2841 25.9833 41.6602 25.9833Z" fill="#FFFAF5"/>
<path d="M41.6527 79.6414C39.8652 79.6414 38.2195 79.2258 36.7667 78.3869C32.924 76.1684 30.9687 71.2979 31.2604 64.6732C31.5444 58.2378 33.9173 50.8546 37.942 43.8837C41.9667 36.9129 47.1745 31.1661 52.6056 27.7024C58.1964 24.1376 63.3928 23.3945 67.2355 25.6139C71.0782 27.8324 73.0335 32.7029 72.7418 39.3276C72.4578 45.7631 70.0849 53.1462 66.0602 60.1171C62.0355 67.0879 56.8278 72.8347 51.3966 76.2984C47.9191 78.5157 44.5944 79.6414 41.6527 79.6414ZM62.3398 25.984C59.7158 25.984 56.6905 27.0248 53.4791 29.0723C48.264 32.3982 43.2464 37.9464 39.3497 44.6958C35.4525 51.4453 33.1564 58.5652 32.8838 64.7447C32.6197 70.734 34.287 75.0793 37.5792 76.9797C40.8707 78.8797 45.4674 78.1517 50.5228 74.9281C55.7378 71.6022 60.7554 66.054 64.6521 59.3046C68.5493 52.5551 70.8454 45.4352 71.118 39.2557C71.3821 33.2664 69.7148 28.9212 66.4226 27.0207C65.2221 26.3277 63.847 25.984 62.3398 25.984Z" fill="#FFFAF5"/>
<path d="M52 68.2341C43.9506 68.2341 36.3699 66.5973 30.6552 63.6256C24.7715 60.5661 21.5312 56.4374 21.5312 52.0004C21.5312 47.5633 24.7715 43.4346 30.6552 40.3751C36.3699 37.4034 43.9506 35.7666 52 35.7666C60.0494 35.7666 67.6301 37.4034 73.3448 40.3751C79.2285 43.4346 82.4688 47.5633 82.4688 52.0004C82.4688 56.4374 79.2285 60.5661 73.3448 63.6256C67.6301 66.5973 60.0494 68.2341 52 68.2341ZM52 37.3916C36.0957 37.3916 23.1562 43.9448 23.1562 52.0004C23.1562 60.0559 36.0957 66.6091 52 66.6091C67.9043 66.6091 80.8438 60.0559 80.8438 52.0004C80.8438 43.9448 67.9043 37.3916 52 37.3916Z" fill="#FFF5EB"/>
<path d="M52 58.0938C55.3655 58.0938 58.0938 55.3655 58.0938 52C58.0938 48.6345 55.3655 45.9062 52 45.9062C48.6345 45.9062 45.9062 48.6345 45.9062 52C45.9062 55.3655 48.6345 58.0938 52 58.0938Z" fill="#FF8C1A"/>
<path d="M52 58.9062C48.1918 58.9062 45.0938 55.8082 45.0938 52C45.0938 48.1918 48.1918 45.0938 52 45.0938C55.8082 45.0938 58.9062 48.1918 58.9062 52C58.9062 55.8082 55.8082 58.9062 52 58.9062ZM52 46.7188C49.088 46.7188 46.7188 49.088 46.7188 52C46.7188 54.912 49.088 57.2812 52 57.2812C54.912 57.2812 57.2812 54.912 57.2812 52C57.2812 49.088 54.912 46.7188 52 46.7188Z" fill="#FFFAF5"/>
</svg>
