<svg width="50" height="50" viewBox="0 0 80 90" fill="none" xmlns="http://www.w3.org/2000/svg">
<path d="M15.2499 15.2501C16.1876 14.3127 17.4591 13.7861 18.7849 13.7861C20.1108 13.7861 21.3823 14.3127 22.3199 15.2501L39.9999 32.9301L57.6799 15.2501C58.623 14.3393 59.886 13.8353 61.1969 13.8467C62.5079 13.8581 63.762 14.3839 64.689 15.311C65.6161 16.238 66.1419 17.4921 66.1533 18.8031C66.1647 20.114 65.6607 21.3771 64.7499 22.3201L47.0699 40L64.7499 57.68C65.6607 58.6231 66.1647 59.8861 66.1533 61.197C66.1419 62.508 65.6161 63.7621 64.689 64.6891C63.762 65.6162 62.5079 66.142 61.1969 66.1534C59.886 66.1648 58.623 65.6608 57.6799 64.75L39.9999 47.07L22.3199 64.75C21.3769 65.6608 20.1139 66.1648 18.8029 66.1534C17.492 66.142 16.2379 65.6162 15.3108 64.6891C14.3838 63.7621 13.858 62.508 13.8466 61.197C13.8352 59.8861 14.3392 58.6231 15.2499 57.68L32.9299 40L15.2499 22.3201C14.3126 21.3824 13.786 20.1109 13.786 18.7851C13.786 17.4592 14.3126 16.1877 15.2499 15.2501V15.2501Z" fill="#FDEBE2"/>
</svg>
