<svg width="64" height="64" viewBox="0 -10 60 80" fill="none" xmlns="http://www.w3.org/2000/svg">
<path fill-rule="evenodd" clip-rule="evenodd" d="M8 10.9C8 10.1309 8.30553 9.39325 8.84939 8.84939C9.39325 8.30554 10.1309 8 10.9 8H45.7C46.4691 8 47.2068 8.30554 47.7506 8.84939C48.2945 9.39325 48.6 10.1309 48.6 10.9C48.6 11.6691 48.2945 12.4068 47.7506 12.9506C47.2068 13.4945 46.4691 13.8 45.7 13.8H10.9C10.1309 13.8 9.39325 13.4945 8.84939 12.9506C8.30553 12.4068 8 11.6691 8 10.9Z" fill="#F36B20"/>
<path fill-rule="evenodd" clip-rule="evenodd" d="M8 24.7C8 23.9309 8.30553 23.1932 8.84939 22.6494C9.39324 22.1055 10.1309 21.8 10.9 21.8H45.7C46.4691 21.8 47.2067 22.1055 47.7506 22.6494C48.2944 23.1932 48.6 23.9309 48.6 24.7C48.6 25.4691 48.2944 26.2068 47.7506 26.7506C47.2067 27.2945 46.4691 27.6 45.7 27.6H10.9C10.1309 27.6 9.39324 27.2945 8.84939 26.7506C8.30553 26.2068 8 25.4691 8 24.7Z" fill="#F36B20"/>
<path fill-rule="evenodd" clip-rule="evenodd" d="M8 38.5C8 37.7309 8.30553 36.9932 8.84939 36.4494C9.39324 35.9055 10.1309 35.6 10.9 35.6H45.7C46.4691 35.6 47.2067 35.9055 47.7506 36.4494C48.2944 36.9932 48.6 37.7309 48.6 38.5C48.6 39.2691 48.2944 40.0068 47.7506 40.5506C47.2067 41.0945 46.4691 41.4 45.7 41.4H10.9C10.1309 41.4 9.39324 41.0945 8.84939 40.5506C8.30553 40.0068 8 39.2691 8 38.5Z" fill="#F36B20"/>
</svg>
